<svg xmlns="http://www.w3.org/2000/svg" width="58" height="44" viewBox="0 0 58 44" fill="none"><path d="M20.6621 13.1914C20.2324 13.1914 19.8662 13.0449 19.5635 12.752C19.2607 12.459 19.1094 12.0879 19.1094 11.6387C19.1094 11.1895 19.2607 10.8184 19.5635 10.5254C19.8662 10.2227 20.2324 10.0713 20.6621 10.0713C21.1016 10.0713 21.4727 10.2227 21.7754 10.5254C22.0879 10.8184 22.2441 11.1895 22.2441 11.6387C22.2441 12.0684 22.0879 12.4346 21.7754 12.7373C21.4727 13.04 21.1016 13.1914 20.6621 13.1914ZM21.834 32H19.4316V17H21.834V32Z" fill="#00FFD6"></path><circle cx="20.5" cy="20.5" r="20" stroke="#00FFD6"></circle></svg>